<svg xmlns="http://www.w3.org/2000/svg" viewBox="0 0 400 800" role="img" aria-label="desk top view rotated 90 degrees">
  <defs>
    <linearGradient id="wood" x1="0" y1="0" x2="1" y2="1">
      <stop offset="0%" stop-color="#ead4b5"/>
      <stop offset="55%" stop-color="#dfc19a"/>
      <stop offset="100%" stop-color="#d4ad83"/>
    </linearGradient>
    <linearGradient id="edge" x1="0" y1="0" x2="0" y2="1">
      <stop offset="0%" stop-color="#c59b71" stop-opacity="0.12"/>
      <stop offset="100%" stop-color="#996e45" stop-opacity="0.45"/>
    </linearGradient>
  </defs>

  <g transform="matrix(0 -1 1 0 0 800)">
    <rect x="28" y="42" width="744" height="308" rx="34" fill="#9f7a55" opacity="0.18"/>

    <rect x="20" y="20" width="760" height="300" rx="32" fill="url(#wood)" stroke="#b58a62" stroke-width="6"/>
    <rect x="20" y="260" width="760" height="60" rx="0" fill="url(#edge)"/>

    <path d="M70 85 C220 48, 470 130, 730 78" stroke="#fff6e8" stroke-opacity="0.25" stroke-width="4" fill="none"/>
    <path d="M65 120 C230 95, 440 166, 740 130" stroke="#b98f67" stroke-opacity="0.35" stroke-width="3" fill="none"/>
    <path d="M62 155 C190 132, 460 210, 742 165" stroke="#fff6e8" stroke-opacity="0.22" stroke-width="3" fill="none"/>
    <path d="M60 190 C250 150, 470 242, 738 198" stroke="#b98f67" stroke-opacity="0.28" stroke-width="3" fill="none"/>
    <path d="M63 225 C245 195, 520 278, 735 240" stroke="#fff6e8" stroke-opacity="0.2" stroke-width="3" fill="none"/>

    <circle cx="116" cy="76" r="12" fill="#8f673f" opacity="0.72"/>
    <circle cx="684" cy="76" r="12" fill="#8f673f" opacity="0.72"/>
    <circle cx="116" cy="286" r="12" fill="#8f673f" opacity="0.72"/>
    <circle cx="684" cy="286" r="12" fill="#8f673f" opacity="0.72"/>

    <rect x="20" y="20" width="760" height="300" rx="32" fill="none" stroke="#f7ead8" stroke-width="3" opacity="0.55"/>
  </g>
</svg>
