<svg xmlns="http://www.w3.org/2000/svg" viewBox="0 0 400 800" role="img" aria-label="vertical school desk">
  <defs>
    <linearGradient id="wood" x1="0" y1="0" x2="1" y2="1">
      <stop offset="0%" stop-color="#edd8bb"/>
      <stop offset="55%" stop-color="#dfc19a"/>
      <stop offset="100%" stop-color="#d2ab81"/>
    </linearGradient>
    <linearGradient id="edge" x1="0" y1="0" x2="0" y2="1">
      <stop offset="0%" stop-color="#c79f74" stop-opacity="0.15"/>
      <stop offset="100%" stop-color="#996d45" stop-opacity="0.48"/>
    </linearGradient>
  </defs>

  <rect x="12" y="28" width="376" height="748" rx="28" fill="#9f7a55" opacity="0.18"/>

  <rect x="4" y="8" width="392" height="744" rx="28" fill="url(#wood)" stroke="#b58a62" stroke-width="6"/>
  <rect x="4" y="668" width="392" height="84" rx="0" fill="url(#edge)"/>

  <path d="M44 94 C120 50, 268 148, 360 92" stroke="#fff6e8" stroke-opacity="0.22" stroke-width="4" fill="none"/>
  <path d="M38 170 C140 122, 264 224, 362 168" stroke="#b98f67" stroke-opacity="0.3" stroke-width="3" fill="none"/>
  <path d="M36 252 C134 214, 250 310, 360 256" stroke="#fff6e8" stroke-opacity="0.2" stroke-width="3" fill="none"/>
  <path d="M38 338 C138 294, 258 390, 362 336" stroke="#b98f67" stroke-opacity="0.27" stroke-width="3" fill="none"/>
  <path d="M36 426 C126 388, 264 484, 358 430" stroke="#fff6e8" stroke-opacity="0.2" stroke-width="3" fill="none"/>
  <path d="M36 514 C136 468, 258 566, 360 512" stroke="#b98f67" stroke-opacity="0.28" stroke-width="3" fill="none"/>
  <path d="M36 600 C134 560, 252 654, 358 604" stroke="#fff6e8" stroke-opacity="0.19" stroke-width="3" fill="none"/>

  <circle cx="48" cy="66" r="11" fill="#8f673f" opacity="0.72"/>
  <circle cx="352" cy="66" r="11" fill="#8f673f" opacity="0.72"/>
  <circle cx="48" cy="694" r="11" fill="#8f673f" opacity="0.72"/>
  <circle cx="352" cy="694" r="11" fill="#8f673f" opacity="0.72"/>

  <rect x="4" y="8" width="392" height="744" rx="28" fill="none" stroke="#f7ead8" stroke-width="3" opacity="0.55"/>
</svg>
